<mxfile host="app.diagrams.net" agent="Mozilla/5.0 (X11; Linux x86_64; rv:140.0) Gecko/20100101 Firefox/140.0" version="28.1.2">
  <diagram name="Page-1" id="OvVK63vO8oLHvFIJiMzW">
    <mxGraphModel dx="1426" dy="751" grid="1" gridSize="10" guides="1" tooltips="1" connect="1" arrows="1" fold="1" page="1" pageScale="1" pageWidth="850" pageHeight="1100" math="0" shadow="0">
      <root>
        <mxCell id="0" />
        <mxCell id="1" parent="0" />
        <mxCell id="L8KiNz-YGl9HzAzkSE0_-4" value="&lt;font style=&quot;font-size: 43px;&quot;&gt;USER INPUT&lt;/font&gt;" style="whiteSpace=wrap;html=1;aspect=fixed;" vertex="1" parent="1">
          <mxGeometry x="30" y="50" width="180" height="180" as="geometry" />
        </mxCell>
        <mxCell id="L8KiNz-YGl9HzAzkSE0_-5" value="" style="html=1;shadow=0;dashed=0;align=center;verticalAlign=middle;shape=mxgraph.arrows2.arrow;dy=0.6;dx=40;notch=0;" vertex="1" parent="1">
          <mxGeometry x="260" y="105" width="100" height="70" as="geometry" />
        </mxCell>
        <mxCell id="L8KiNz-YGl9HzAzkSE0_-6" value="&lt;font style=&quot;font-size: 30px;&quot;&gt;Split input String into an array of words using split()&lt;/font&gt;" style="whiteSpace=wrap;html=1;aspect=fixed;" vertex="1" parent="1">
          <mxGeometry x="390" y="50" width="190" height="190" as="geometry" />
        </mxCell>
        <mxCell id="L8KiNz-YGl9HzAzkSE0_-7" value="" style="html=1;shadow=0;dashed=0;align=center;verticalAlign=middle;shape=mxgraph.arrows2.arrow;dy=0.6;dx=40;direction=south;notch=0;" vertex="1" parent="1">
          <mxGeometry x="530" y="260" width="70" height="100" as="geometry" />
        </mxCell>
        <mxCell id="L8KiNz-YGl9HzAzkSE0_-8" value="&lt;font style=&quot;font-size: 29px;&quot;&gt;Get word frequency using simple algorithm&lt;/font&gt;" style="whiteSpace=wrap;html=1;aspect=fixed;" vertex="1" parent="1">
          <mxGeometry x="465" y="370" width="200" height="200" as="geometry" />
        </mxCell>
        <mxCell id="L8KiNz-YGl9HzAzkSE0_-9" value="" style="html=1;shadow=0;dashed=0;align=center;verticalAlign=middle;shape=mxgraph.arrows2.arrow;dy=0.6;dx=40;flipH=1;notch=0;" vertex="1" parent="1">
          <mxGeometry x="340" y="430" width="100" height="70" as="geometry" />
        </mxCell>
        <mxCell id="L8KiNz-YGl9HzAzkSE0_-10" value="&lt;font style=&quot;font-size: 34px;&quot;&gt;Run a for loop through count array to print out words and counts.&amp;nbsp;&lt;/font&gt;" style="whiteSpace=wrap;html=1;aspect=fixed;" vertex="1" parent="1">
          <mxGeometry x="70" y="360" width="250" height="250" as="geometry" />
        </mxCell>
      </root>
    </mxGraphModel>
  </diagram>
</mxfile>
